<svg width="129" height="162" viewBox="0 0 129 162" fill="none" xmlns="http://www.w3.org/2000/svg">
<path opacity="0.16" d="M6 64.3334H122.667V139.333C122.667 143.754 120.911 147.993 117.785 151.118C114.66 154.244 110.42 156 106 156H22.6667C18.2464 156 14.0072 154.244 10.8816 151.118C7.75595 147.993 6 143.754 6 139.333V64.3334Z" fill="#31DB37"/>
<path d="M31 64.3333V39.3333C31 30.4928 34.5119 22.0143 40.7631 15.7631C47.0143 9.51189 55.4928 6 64.3333 6C73.1739 6 81.6523 9.51189 87.9036 15.7631C94.1548 22.0143 97.6667 30.4928 97.6667 39.3333V64.3333" stroke="#31DB37" stroke-width="12" stroke-linecap="round"/>
<path d="M6 64.3334H122.667V139.333C122.667 143.754 120.911 147.993 117.785 151.118C114.659 154.244 110.42 156 106 156H22.6667C18.2464 156 14.0072 154.244 10.8816 151.118C7.75595 147.993 6 143.754 6 139.333V64.3334Z" stroke="#31DB37" stroke-width="12" stroke-linejoin="round"/>
<path d="M85.1666 110.167H85.25V110.25H85.1666V110.167Z" stroke="#31DB37" stroke-width="25" stroke-linejoin="round"/>
</svg>
