<svg width="60" height="60" viewBox="0 0 60 60" fill="none" xmlns="http://www.w3.org/2000/svg">
<path id="Container" fill-rule="evenodd" clip-rule="evenodd" d="M1.40733 6.73782C0 9.44705 0 13.0064 0 20.125V39.875C0 46.9936 0 50.553 1.40733 53.2622C2.59328 55.5452 4.45478 57.4067 6.73782 58.5927C9.44705 60 13.0064 60 20.125 60H22.4909C22.4951 59.5209 22.5389 54.4967 22.5237 51.9186C14.1791 53.7308 12.4184 47.8964 12.4184 47.8964C11.0537 44.4322 9.08681 43.5095 9.08681 43.5095C6.36297 41.6476 9.29308 41.6844 9.29308 41.6844C12.3042 41.898 13.8881 44.7766 13.8881 44.7766C16.564 49.3605 20.9104 48.0364 22.6195 47.2702C22.892 45.3309 23.6655 44.0086 24.5238 43.259C17.8624 42.5021 10.8585 39.9274 10.8585 28.4317C10.8585 25.1572 12.028 22.4794 13.947 20.3817C13.6376 19.623 12.6081 16.5731 14.2398 12.4423C14.2398 12.4423 16.7592 11.6356 22.4905 15.5179C24.8829 14.853 27.4502 14.5197 30.0009 14.5086C32.5479 14.5197 35.1152 14.853 37.5113 15.5179C43.2389 11.6356 45.7528 12.4423 45.7528 12.4423C47.39 16.5731 46.3605 19.623 46.0511 20.3817C47.9738 22.4794 49.1359 25.1572 49.1359 28.4317C49.1359 39.9569 42.121 42.4929 35.4375 43.2351C36.5149 44.1615 37.4744 45.9921 37.4744 48.7914C37.4744 52.3871 37.5083 59.4295 37.5111 60H39.875C46.9936 60 50.553 60 53.2622 58.5927C55.5452 57.4067 57.4067 55.5452 58.5927 53.2622C60 50.553 60 46.9936 60 39.875V20.125C60 13.0064 60 9.44705 58.5927 6.73782C57.4067 4.45478 55.5452 2.59328 53.2622 1.40733C50.553 0 46.9936 0 39.875 0H20.125C13.0064 0 9.44705 0 6.73782 1.40733C4.45478 2.59328 2.59328 4.45478 1.40733 6.73782Z" fill="black"/>
</svg>
