<svg width="134" height="167" viewBox="0 0 134 167" fill="none" xmlns="http://www.w3.org/2000/svg">
<path d="M28.55 133.333H133.333C133.308 141.083 133.15 146.858 132.392 151.417C131.475 156.858 129.808 159.733 127.258 161.783C124.7 163.833 121.117 165.175 114.342 165.9C107.367 166.65 98.125 166.667 84.875 166.667H47.9584C34.7084 166.667 25.4584 166.658 18.4917 165.9C11.7167 165.175 8.13336 163.833 5.57503 161.783C3.02503 159.733 1.35836 156.858 0.441693 151.425C0.374469 151.007 0.313353 150.587 0.258361 150.167C-0.0749723 147.742 -0.241639 146.525 0.808361 143.667C1.86669 140.8 2.31669 140.358 3.23336 139.458C6.20987 136.637 9.92102 134.71 13.9417 133.9C16.3584 133.383 19.525 133.333 28.55 133.333Z" fill="#31DB37"/>
<path opacity="0.5" d="M6.05834 6.10833C8.60833 3.54167 12.175 1.875 18.925 0.958333C25.875 0.0166668 35.075 0 48.275 0H85.0583C98.2583 0 107.458 0.0166668 114.408 0.958333C121.158 1.875 124.725 3.54167 127.275 6.10833C129.817 8.675 131.475 12.275 132.383 19.0833C133.317 26.0833 133.333 35.375 133.333 48.6833V133.333H28.55C19.5167 133.333 16.3667 133.383 13.9417 133.9C9.66667 134.817 5.94167 136.792 3.23333 139.458C2.31667 140.358 1.86667 140.8 0.808334 143.667C0.30324 144.883 0.0291214 146.183 0 147.5V48.6833C0 35.375 0.0166653 26.0917 0.949999 19.0833C1.85833 12.2833 3.51667 8.675 6.05834 6.10833Z" fill="#8AFF8E"/>
<path d="M27.0834 41.6666C27.0834 40.009 27.7419 38.4193 28.914 37.2472C30.0861 36.0751 31.6758 35.4166 33.3334 35.4166H100C101.658 35.4166 103.247 36.0751 104.419 37.2472C105.592 38.4193 106.25 40.009 106.25 41.6666C106.25 43.3242 105.592 44.9139 104.419 46.086C103.247 47.2581 101.658 47.9166 100 47.9166H33.3334C31.6758 47.9166 30.0861 47.2581 28.914 46.086C27.7419 44.9139 27.0834 43.3242 27.0834 41.6666ZM33.3334 64.5833C31.6758 64.5833 30.0861 65.2418 28.914 66.4139C27.7419 67.586 27.0834 69.1757 27.0834 70.8333C27.0834 72.4909 27.7419 74.0806 28.914 75.2527C30.0861 76.4248 31.6758 77.0833 33.3334 77.0833H75C76.6576 77.0833 78.2473 76.4248 79.4195 75.2527C80.5916 74.0806 81.25 72.4909 81.25 70.8333C81.25 69.1757 80.5916 67.586 79.4195 66.4139C78.2473 65.2418 76.6576 64.5833 75 64.5833H33.3334Z" fill="#31DB37"/>
</svg>
