<svg width="94" height="61" viewBox="0 0 94 61" fill="none" xmlns="http://www.w3.org/2000/svg">
<path d="M0 18.3897C0 17.1511 1.01655 16.1471 2.27053 16.1471H37.6908C38.9448 16.1471 39.9614 17.1511 39.9614 18.3897C39.9614 19.6283 38.9448 20.6323 37.6908 20.6323H2.27053C1.01655 20.6323 0 19.6283 0 18.3897Z" fill="#31DB37"/>
<path d="M4.54106 26.4632C4.54106 25.2247 5.55761 24.2206 6.81159 24.2206H42.2319C43.4859 24.2206 44.5024 25.2247 44.5024 26.4632C44.5024 27.7018 43.4859 28.7059 42.2319 28.7059H6.81159C5.55761 28.7059 4.54106 27.7018 4.54106 26.4632Z" fill="#31DB37"/>
<path d="M0 34.5368C0 33.2982 1.01655 32.2941 2.27053 32.2941H37.6908C38.9448 32.2941 39.9614 33.2982 39.9614 34.5368C39.9614 35.7753 38.9448 36.7794 37.6908 36.7794H2.27053C1.01655 36.7794 0 35.7753 0 34.5368Z" fill="#31DB37"/>
<path d="M4.54106 42.6103C4.54106 41.3717 5.55761 40.3676 6.81159 40.3676H42.2319C43.4859 40.3676 44.5024 41.3717 44.5024 42.6103C44.5024 43.8489 43.4859 44.8529 42.2319 44.8529H6.81159C5.55761 44.8529 4.54106 43.8489 4.54106 42.6103Z" fill="#31DB37"/>
<path d="M0 50.6838C0 49.4452 1.01655 48.4412 2.27053 48.4412H37.6908C38.9448 48.4412 39.9614 49.4452 39.9614 50.6838C39.9614 51.9224 38.9448 52.9265 37.6908 52.9265H2.27053C1.01655 52.9265 0 51.9224 0 50.6838Z" fill="#31DB37"/>
<path d="M4.54106 58.7574C4.54106 57.5188 5.55761 56.5147 6.81159 56.5147H42.2319C43.4859 56.5147 44.5024 57.5188 44.5024 58.7574C44.5024 59.9959 43.4859 61 42.2319 61H6.81159C5.55761 61 4.54106 59.9959 4.54106 58.7574Z" fill="#31DB37"/>
<path d="M49.4976 18.3897C49.4976 17.1511 50.5141 16.1471 51.7681 16.1471H87.1884C88.4424 16.1471 89.4589 17.1511 89.4589 18.3897C89.4589 19.6283 88.4424 20.6323 87.1884 20.6323H51.7681C50.5141 20.6323 49.4976 19.6283 49.4976 18.3897Z" fill="#31DB37"/>
<path d="M54.0386 26.4632C54.0386 25.2247 55.0552 24.2206 56.3092 24.2206H91.7295C92.9834 24.2206 94 25.2247 94 26.4632C94 27.7018 92.9834 28.7059 91.7295 28.7059H56.3092C55.0552 28.7059 54.0386 27.7018 54.0386 26.4632Z" fill="#31DB37"/>
<path d="M49.4976 34.5368C49.4976 33.2982 50.5141 32.2941 51.7681 32.2941H87.1884C88.4424 32.2941 89.4589 33.2982 89.4589 34.5368C89.4589 35.7753 88.4424 36.7794 87.1884 36.7794H51.7681C50.5141 36.7794 49.4976 35.7753 49.4976 34.5368Z" fill="#31DB37"/>
<path d="M54.0386 42.6103C54.0386 41.3717 55.0552 40.3676 56.3092 40.3676H91.7295C92.9834 40.3676 94 41.3717 94 42.6103C94 43.8489 92.9834 44.8529 91.7295 44.8529H56.3092C55.0552 44.8529 54.0386 43.8489 54.0386 42.6103Z" fill="#31DB37"/>
<path d="M49.4976 50.6838C49.4976 49.4452 50.5141 48.4412 51.7681 48.4412H87.1884C88.4424 48.4412 89.4589 49.4452 89.4589 50.6838C89.4589 51.9224 88.4424 52.9265 87.1884 52.9265H51.7681C50.5141 52.9265 49.4976 51.9224 49.4976 50.6838Z" fill="#31DB37"/>
<path d="M54.0386 58.7574C54.0386 57.5188 55.0552 56.5147 56.3092 56.5147H91.7295C92.9834 56.5147 94 57.5188 94 58.7574C94 59.9959 92.9834 61 91.7295 61H56.3092C55.0552 61 54.0386 59.9959 54.0386 58.7574Z" fill="#31DB37"/>
<path d="M49.4976 2.24265C49.4976 1.00407 50.5141 0 51.7681 0H87.1884C88.4424 0 89.4589 1.00407 89.4589 2.24265C89.4589 3.48123 88.4424 4.48529 87.1884 4.48529H51.7681C50.5141 4.48529 49.4976 3.48123 49.4976 2.24265Z" fill="#31DB37"/>
<path d="M54.0386 10.3162C54.0386 9.0776 55.0552 8.07353 56.3092 8.07353H91.7295C92.9834 8.07353 94 9.0776 94 10.3162C94 11.5548 92.9834 12.5588 91.7295 12.5588H56.3092C55.0552 12.5588 54.0386 11.5548 54.0386 10.3162Z" fill="#31DB37"/>
<path d="M49.4976 18.3897C49.4976 17.1511 50.5141 16.1471 51.7681 16.1471H87.1884C88.4424 16.1471 89.4589 17.1511 89.4589 18.3897C89.4589 19.6283 88.4424 20.6323 87.1884 20.6323H51.7681C50.5141 20.6323 49.4976 19.6283 49.4976 18.3897Z" fill="#31DB37"/>
<path d="M54.0386 26.4632C54.0386 25.2247 55.0552 24.2206 56.3092 24.2206H91.7295C92.9834 24.2206 94 25.2247 94 26.4632C94 27.7018 92.9834 28.7059 91.7295 28.7059H56.3092C55.0552 28.7059 54.0386 27.7018 54.0386 26.4632Z" fill="#31DB37"/>
</svg>
