<svg width="50" height="44" viewBox="0 0 50 44" fill="none" xmlns="http://www.w3.org/2000/svg">
<g clip-path="url(#clip0_112_155)">
<path d="M4.31868 43.5C2.33966 43.5 0.735352 41.8957 0.735352 39.9167V39.9167C0.735352 37.9376 2.33967 36.3333 4.31869 36.3333H46.1716C48.1506 36.3333 49.755 37.9376 49.755 39.9167V39.9167C49.755 41.8957 48.1506 43.5 46.1716 43.5H4.31868ZM4.31868 25.5833C2.33966 25.5833 0.735352 23.979 0.735352 22V22C0.735352 20.021 2.33967 18.4167 4.31869 18.4167H46.1716C48.1506 18.4167 49.755 20.021 49.755 22V22C49.755 23.979 48.1506 25.5833 46.1716 25.5833H4.31868ZM4.31868 7.66667C2.33966 7.66667 0.735352 6.06235 0.735352 4.08333V4.08333C0.735352 2.10431 2.33967 0.5 4.31869 0.5H46.1716C48.1506 0.5 49.755 2.10431 49.755 4.08333V4.08333C49.755 6.06235 48.1506 7.66667 46.1716 7.66667H4.31868Z" fill="white"/>
</g>
<defs>
<clipPath id="clip0_112_155">
<rect width="50" height="44" fill="white"/>
</clipPath>
</defs>
</svg>
