<svg width="56" height="56" viewBox="0 0 56 56" fill="none" xmlns="http://www.w3.org/2000/svg">
<g id="bxl:play-store">
<path id="Vector" d="M30.226 27.104L37.1257 20.2043L14.84 7.679C13.363 6.881 11.9794 6.769 10.766 7.64167L30.226 27.104ZM38.3017 35.182L45.4744 31.1477C46.8744 30.3637 47.642 29.253 47.642 28.021C47.642 26.7913 46.8744 25.6783 45.4767 24.8943L38.983 21.2473L31.6727 28.5553L38.3017 35.182ZM9.56671 9.338C9.41737 9.79767 9.33337 10.311 9.33337 10.8733V45.185C9.33337 46.074 9.52937 46.8393 9.88404 47.4483L28.777 28.553L9.56671 9.338ZM30.226 29.9997L11.438 48.79C11.7974 48.9277 12.1847 49 12.593 49C13.321 49 14.0794 48.7853 14.8517 48.356L36.4467 36.2297L30.226 29.9997Z" fill="#31DB37"/>
</g>
</svg>
