<svg width="60" height="60" viewBox="0 0 60 60" fill="none" xmlns="http://www.w3.org/2000/svg">
<g id="Twitter">
<path id="Container" d="M0 20.125C0 13.0064 0 9.44705 1.40733 6.73782C2.59328 4.45478 4.45478 2.59328 6.73782 1.40733C9.44705 0 13.0064 0 20.125 0H39.875C46.9936 0 50.553 0 53.2622 1.40733C55.5452 2.59328 57.4067 4.45478 58.5927 6.73782C60 9.44705 60 13.0064 60 20.125V39.875C60 46.9936 60 50.553 58.5927 53.2622C57.4067 55.5452 55.5452 57.4067 53.2622 58.5927C50.553 60 46.9936 60 39.875 60H20.125C13.0064 60 9.44705 60 6.73782 58.5927C4.45478 57.4067 2.59328 55.5452 1.40733 53.2622C0 50.553 0 46.9936 0 39.875V20.125Z" fill="#1EA1F2"/>
<path id="Vector" fill-rule="evenodd" clip-rule="evenodd" d="M46.6536 22.6903C46.6682 23.0651 46.673 23.4397 46.673 23.8144C46.673 35.1763 38.6805 48.2929 24.065 48.2929C19.5753 48.2929 15.4006 46.862 11.8832 44.4261C12.5049 44.4942 13.1364 44.5454 13.7776 44.5454C17.5001 44.5454 20.9287 43.1653 23.6483 40.8487C20.1712 40.7976 17.2352 38.2936 16.2226 34.8867C16.7087 34.9889 17.2094 35.0402 17.7213 35.0402C18.4432 35.0402 19.1441 34.9381 19.8159 34.7337C16.1774 33.9501 13.4368 30.4752 13.4368 26.3018C13.4368 26.2507 13.4368 26.2335 13.4368 26.1995C14.5091 26.8297 15.7365 27.2213 17.0398 27.2724C14.9048 25.7223 13.5014 23.0821 13.5014 20.1011C13.5014 18.5339 13.8922 17.0519 14.5802 15.7743C18.4981 20.9868 24.3557 24.4107 30.9593 24.7684C30.8237 24.1382 30.7542 23.474 30.7542 22.8097C30.7542 18.0571 34.312 14.2073 38.7015 14.2073C40.9867 14.2073 43.0506 15.2465 44.4992 16.9159C46.3129 16.5411 48.0118 15.8257 49.5493 14.8377C48.9534 16.8478 47.6953 18.5338 46.0512 19.59C47.6597 19.3855 49.194 18.926 50.6168 18.2446C49.5493 19.9651 48.2056 21.4809 46.6536 22.6903Z" fill="white"/>
</g>
</svg>
